<svg width="184" height="64" viewBox="0 0 184 64" fill="none" xmlns="http://www.w3.org/2000/svg">
<g clip-path="url(#clip0_821_10014)">
<path d="M11.3915 -9.2088e-05H1.07919C0.798428 -0.00483157 0.527217 0.101392 0.324948 0.295319C0.122679 0.489246 0.00583422 0.755073 0 1.03459L0 25.3939H11.3915C19.7408 25.3939 25.5142 19.849 25.5142 12.6947V12.6239C25.5142 5.47842 19.7408 -9.2088e-05 11.3915 -9.2088e-05ZM19.3855 12.7698C19.3855 17.2667 16.1568 20.3487 11.3915 20.3487H5.84451V5.04067H11.3915C16.1746 5.04067 19.3855 8.19778 19.3855 12.6947V12.7698Z" fill="#354B54"/>
<path d="M77.1334 21.3525C77.1746 21.2358 77.1867 21.1108 77.1684 20.9884C77.1502 20.866 77.1023 20.7499 77.0287 20.6502C76.9552 20.5504 76.8584 20.47 76.7466 20.4159C76.6348 20.3619 76.5115 20.3358 76.3873 20.3399H62.4066V0H56.5621V25.3939H75.9432L77.1245 21.4144C77.1288 21.394 77.1317 21.3733 77.1334 21.3525Z" fill="#354B54"/>
<path d="M74.8595 0V5.15131H83.2976V25.3939H89.1377V5.15131H96.0037C96.282 5.12494 96.5482 5.02494 96.7746 4.86167C97.0011 4.6984 97.1796 4.4778 97.2916 4.22274L98.5928 0H74.8595Z" fill="#354B54"/>
<path d="M35.6666 20.424V15.0915H45.3216C45.5833 15.0592 45.8323 14.9611 46.0452 14.8064C46.2582 14.6516 46.4279 14.4454 46.5385 14.2071L47.7554 10.1657H35.6666V4.97013H49.3986L50.9308 0.000115694H30.9768H30.9457C30.6738 -0.00388827 30.4107 0.0961677 30.2108 0.279642C30.0108 0.463117 29.8891 0.716013 29.871 0.98616V24.3638C29.8733 24.5018 29.9029 24.638 29.9583 24.7646C30.0136 24.8911 30.0935 25.0055 30.1933 25.1013C30.2932 25.197 30.4111 25.2721 30.5402 25.3224C30.6693 25.3726 30.8071 25.397 30.9457 25.3941H51.1306L49.5984 20.424H35.6666Z" fill="#354B54"/>
<path d="M119.959 25.3939H126.07L114.994 0.694173C114.924 0.509448 114.804 0.347769 114.647 0.227429C114.49 0.107088 114.303 0.0328892 114.106 0.0132275H114.083H108.972C108.76 0.0113222 108.552 0.0715186 108.374 0.186315C108.197 0.301112 108.057 0.465432 107.972 0.658799L96.8696 25.4204H102.825L110.85 6.69003H111.916L119.959 25.3939Z" fill="#354B54"/>
<path d="M116.357 25.394L112.804 17.2448C112.779 17.1853 112.738 17.1337 112.686 17.0956C112.633 17.0575 112.571 17.0341 112.507 17.0281H110.286C110.216 17.0272 110.147 17.0469 110.088 17.0846C110.029 17.1223 109.982 17.1764 109.953 17.2403L106.476 25.4294L116.357 25.394Z" fill="#EC691A"/>
<path d="M81.8143 59.3439C81.8602 59.2244 81.8751 59.0953 81.8576 58.9686C81.8401 58.8418 81.7907 58.7215 81.7141 58.6188C81.6375 58.5161 81.5361 58.4343 81.4193 58.3809C81.3026 58.3276 81.1741 58.3044 81.046 58.3136H67.1852V38.0002H61.3496V63.3942H80.6107C80.6107 63.3942 81.8098 59.3704 81.8143 59.3439Z" fill="#EC691A"/>
<path d="M0 63.3809V38.0002H4.71647C4.8559 37.993 4.99537 38.0133 5.12691 38.0599C5.25844 38.1066 5.37944 38.1785 5.48299 38.2718C5.58654 38.365 5.6706 38.4777 5.73035 38.6033C5.7901 38.7289 5.82436 38.8651 5.83119 39.0039V48.0419H17.6224V38.0002H23.4491V63.3809H17.6224V53.2109H5.83119V63.3809H0Z" fill="#EC691A"/>
<path d="M42.4215 63.9956H41.8486C33.6104 63.9956 27.6992 58.0838 27.6992 50.8056V50.7349C27.6992 43.4567 33.6947 37.5007 41.9419 37.4697H43.0788C51.3349 37.4697 57.2549 43.3727 57.2549 50.6509V50.7216C57.2549 57.9954 51.2638 63.9603 43.0122 63.9868L42.4215 63.9956ZM51.0639 50.7305C51.0795 49.6701 50.8813 48.6174 50.4812 47.6347C50.081 46.6519 49.487 45.759 48.7343 45.0087C47.9816 44.2584 47.0854 43.666 46.0987 43.2666C45.1121 42.8671 44.055 42.6686 42.99 42.6829H41.8664C40.811 42.6625 39.7623 42.8544 38.7831 43.2472C37.8039 43.6399 36.9145 44.2254 36.1681 44.9686C35.4216 45.7118 34.8335 46.5973 34.4391 47.5722C34.0446 48.5471 33.8519 49.5912 33.8724 50.642V50.7128C33.8502 51.7768 34.0434 52.8344 34.4403 53.8225C34.8372 54.8107 35.4297 55.7092 36.1827 56.4647C36.9356 57.2201 37.8335 57.8169 38.8229 58.2197C39.8124 58.6224 40.8731 58.8228 41.9419 58.809H43.0788C44.1365 58.8295 45.1875 58.6368 46.1685 58.2424C47.1494 57.848 48.0401 57.2601 48.7869 56.5141C49.5337 55.7681 50.1213 54.8793 50.5141 53.9013C50.9069 52.9234 51.097 51.8764 51.0728 50.8233L51.0639 50.7305Z" fill="#EC691A"/>
<path d="M171.871 64C163.531 64 157.451 58.3977 157.451 50.8189V50.7393C157.451 43.4523 163.722 37.4741 171.836 37.4741C176.654 37.4741 180.247 38.7255 183.036 41.0115L180.003 44.5179C179.599 44.9601 179.15 45.0618 178.373 44.5754C176.351 43.3343 174.02 42.6832 171.645 42.6962C169.531 42.7278 167.512 43.5753 166.013 45.06C164.514 46.5448 163.653 48.5507 163.611 50.6553V50.726C163.611 55.4175 167.315 58.8576 172.049 58.8576C174.194 58.8576 176.792 58.3402 178.266 57.3188V53.6576H171.059L172.151 50.1556C172.217 49.7618 172.425 49.4057 172.737 49.1547C173.049 48.9038 173.443 48.7753 173.843 48.7937H184V59.9232C181.251 62.1694 176.756 64 171.871 64Z" fill="#EC691A"/>
<path d="M115.469 63.3942V38.0002H121.331V63.3942H115.469Z" fill="#EC691A"/>
<path d="M96.9096 38.0003H86.5219C86.383 37.9968 86.2449 38.0206 86.1153 38.0702C85.9857 38.1199 85.8672 38.1944 85.7666 38.2897C85.6659 38.385 85.5851 38.4991 85.5288 38.6254C85.4725 38.7518 85.4417 38.888 85.4382 39.0262V63.3987H96.9096C105.317 63.3987 111.121 57.8406 111.121 50.6907V50.6199C111.13 43.4789 105.317 38.0003 96.9096 38.0003ZM104.975 50.7703C104.975 55.2627 101.724 58.3491 96.9096 58.3491H91.3227V43.0455H96.9096C101.724 43.0455 104.975 46.1938 104.975 50.6907V50.7703Z" fill="#EC691A"/>
<path d="M148.009 63.3942L134.122 47.2461V62.4126C134.108 62.6692 133.999 62.9115 133.816 63.0928C133.633 63.2741 133.389 63.3815 133.131 63.3942H128.273V37.9958H133.749L147.214 53.6355V38.9996C147.219 38.8621 147.252 38.727 147.31 38.6021C147.367 38.4771 147.449 38.3648 147.551 38.2715C147.652 38.1782 147.771 38.1058 147.901 38.0585C148.031 38.0112 148.169 37.9899 148.307 37.9958H153.068V63.3942H148.009Z" fill="#EC691A"/>
</g>
<defs>
<clipPath id="clip0_821_10014">
<rect width="184" height="64" fill="white"/>
</clipPath>
</defs>
</svg>
