<svg width="114" height="47" viewBox="0 0 114 47" fill="none" xmlns="http://www.w3.org/2000/svg">
<path d="M95 45C103.667 40.5 116.5 25.4 98.5 1" stroke="white" stroke-width="3"/>
<path d="M100 32.5V41L110 38" stroke="white" stroke-width="3"/>
<path d="M103 27L104.5 35L112.5 28.5" stroke="white" stroke-width="3"/>
<path d="M103 21L107 26.5L112.5 19" stroke="white" stroke-width="3"/>
<path d="M102.5 15L107 19L109.5 12" stroke="white" stroke-width="3"/>
<path d="M100 9L105 11L106.5 5" stroke="white" stroke-width="3"/>
<path d="M19 45C10.3333 40.5 -2.5 25.4 15.5 1" stroke="white" stroke-width="3"/>
<path d="M14 32.5V41L4 38" stroke="white" stroke-width="3"/>
<path d="M11 27L9.5 35L1.5 28.5" stroke="white" stroke-width="3"/>
<path d="M11 21L7 26.5L1.5 19" stroke="white" stroke-width="3"/>
<path d="M11.5 15L7 19L4.5 12" stroke="white" stroke-width="3"/>
<path d="M14 9L9 11L7.5 5" stroke="white" stroke-width="3"/>
<circle cx="57" cy="23" r="22" fill="white"/>
<path d="M52.8475 30.2C51.3675 30.2 50.1742 29.9467 49.2675 29.44C48.3742 28.92 47.7208 28.1667 47.3075 27.18C46.8942 26.1933 46.6875 24.9867 46.6875 23.56C46.6875 22.1333 46.8942 20.9267 47.3075 19.94C47.7208 18.9533 48.3742 18.2067 49.2675 17.7C50.1742 17.18 51.3675 16.92 52.8475 16.92C55.0608 16.92 56.6408 17.4933 57.5875 18.64C58.5342 19.7733 59.0075 21.4133 59.0075 23.56C59.0075 25.6933 58.5342 27.3333 57.5875 28.48C56.6408 29.6267 55.0608 30.2 52.8475 30.2ZM52.8475 27C53.7142 27 54.3142 26.7133 54.6475 26.14C54.9942 25.5533 55.1675 24.6933 55.1675 23.56C55.1675 22.4133 54.9942 21.5533 54.6475 20.98C54.3142 20.4067 53.7142 20.12 52.8475 20.12C51.9808 20.12 51.3742 20.4067 51.0275 20.98C50.6942 21.5533 50.5275 22.4133 50.5275 23.56C50.5275 24.6933 50.6942 25.5533 51.0275 26.14C51.3742 26.7133 51.9808 27 52.8475 27ZM62.1478 30V20.6L60.0078 20.92V17.78L65.9078 16.92V30H62.1478Z" fill="#121212"/>
</svg>
