<svg width="48" height="48" viewBox="0 0 48 48" fill="none" xmlns="http://www.w3.org/2000/svg">
<path d="M42.7929 0.5L47.5 5.20711V47.5H0.5V0.5H42.7929Z" stroke="white"/>
<path d="M18.5597 33.1554V20.2305H14.2538V33.1554H18.5602H18.5597ZM16.4077 18.4662C17.9089 18.4662 18.8436 17.4737 18.8436 16.2334C18.8155 14.9648 17.9089 14 16.4362 14C14.9625 14 14 14.9648 14 16.2333C14 17.4736 14.9343 18.4661 16.3795 18.4661H16.4073L16.4077 18.4662ZM20.9431 33.1554H25.2487V25.9384C25.2487 25.5526 25.2768 25.1658 25.3906 24.8903C25.7017 24.1181 26.4102 23.3189 27.6 23.3189C29.1577 23.3189 29.7812 24.504 29.7812 26.2417V33.1554H34.0866V25.7447C34.0866 21.7749 31.9627 19.9275 29.1298 19.9275C26.8072 19.9275 25.7871 21.2227 25.2204 22.1048H25.2491V20.231H20.9434C20.9996 21.4435 20.943 33.1559 20.943 33.1559L20.9431 33.1554Z" fill="white"/>
</svg>
