<svg width="150" height="150" viewBox="0 0 150 150" fill="none" xmlns="http://www.w3.org/2000/svg">
<circle cx="75" cy="75" r="74" stroke="white" stroke-width="2"/>
<circle cx="75" cy="75" r="65" fill="white"/>
<path d="M63 88.1519V62.4803C63 61.7776 63.3 61.1885 63.9 60.7131C64.5 60.2377 65.2 60 66 60C66.25 60 66.5125 60.031 66.7875 60.093C67.0625 60.155 67.325 60.248 67.575 60.3721L92.025 73.2079C92.475 73.4559 92.8125 73.7659 93.0375 74.138C93.2625 74.51 93.375 74.9028 93.375 75.3161C93.375 75.7295 93.2625 76.1223 93.0375 76.4943C92.8125 76.8664 92.475 77.1764 92.025 77.4244L67.575 90.2602C67.325 90.3843 67.0625 90.4773 66.7875 90.5393C66.5125 90.6013 66.25 90.6323 66 90.6323C65.2 90.6323 64.5 90.3946 63.9 89.9192C63.3 89.4438 63 88.8547 63 88.1519Z" fill="#121212"/>
</svg>
