<svg width="130" height="130" viewBox="0 0 130 130" fill="none" xmlns="http://www.w3.org/2000/svg">
<circle cx="65" cy="65" r="65" fill="white"/>
<path d="M53 78.1519V52.4803C53 51.7776 53.3 51.1885 53.9 50.7131C54.5 50.2377 55.2 50 56 50C56.25 50 56.5125 50.031 56.7875 50.093C57.0625 50.155 57.325 50.248 57.575 50.3721L82.025 63.2079C82.475 63.4559 82.8125 63.7659 83.0375 64.138C83.2625 64.51 83.375 64.9028 83.375 65.3161C83.375 65.7295 83.2625 66.1223 83.0375 66.4943C82.8125 66.8664 82.475 67.1764 82.025 67.4244L57.575 80.2602C57.325 80.3843 57.0625 80.4773 56.7875 80.5393C56.5125 80.6013 56.25 80.6323 56 80.6323C55.2 80.6323 54.5 80.3946 53.9 79.9192C53.3 79.4438 53 78.8547 53 78.1519Z" fill="#121212"/>
</svg>
