<svg width="152" height="153" viewBox="0 0 152 153" fill="none" xmlns="http://www.w3.org/2000/svg">
<path d="M16.6743 60.8086L2.99835 55.8619L5.31803 49.4487C5.7072 48.3727 6.22997 47.5692 6.88633 47.0382C7.5478 46.493 8.29392 46.1785 9.12468 46.0948C9.95544 46.011 10.8239 46.133 11.7299 46.4608C12.6501 46.7936 13.3925 47.2862 13.957 47.9387C14.5266 48.577 14.879 49.3288 15.0143 50.1942C15.1405 51.0403 15.0269 51.9518 14.6736 52.9287L13.4216 56.3901L17.7112 57.9417L16.6743 60.8086ZM11.1493 55.5683L12.1863 52.7014C12.4833 51.8803 12.4937 51.1876 12.2174 50.6234C11.9322 50.04 11.4215 49.6151 10.6853 49.3488C9.89249 49.0621 9.21911 49.0427 8.66517 49.2906C8.09707 49.5333 7.66965 50.0511 7.38289 50.8439L6.30754 53.817L11.1493 55.5683Z" fill="#121212"/>
<path d="M24.7023 43.8042C22.2039 47.7641 18.8735 48.4309 14.7113 45.8047C12.472 44.3918 11.168 42.8704 10.7991 41.2403C10.4303 39.6103 10.8645 37.8148 12.1017 35.8539C13.339 33.8929 14.7726 32.7281 16.4027 32.3592C18.0327 31.9904 19.9674 32.5124 22.2066 33.9253C26.3689 36.5514 27.2008 39.8444 24.7023 43.8042ZM22.52 42.4273C23.2464 41.276 23.4483 40.2272 23.1257 39.2808C22.7984 38.3137 21.9453 37.3951 20.5663 36.5251C19.0355 35.5592 17.7885 35.1527 16.8254 35.3056C15.8576 35.4378 15.0105 36.0796 14.2841 37.2308C13.5577 38.3821 13.3391 39.4293 13.6285 40.3724C13.9131 41.2949 14.8208 42.239 16.3516 43.2049C17.7306 44.075 18.923 44.4559 19.9288 44.3476C20.9299 44.2187 21.7936 43.5786 22.52 42.4273Z" fill="#121212"/>
<path d="M34.0603 32.2514C32.328 33.9593 30.5647 34.8016 28.7703 34.7782C26.976 34.7549 25.2828 33.9358 23.6909 32.3212C22.0041 30.6102 21.1354 28.8202 21.085 26.951C21.024 25.0711 21.8917 23.2455 23.6882 21.4744C24.3084 20.8629 24.9067 20.3468 25.4831 19.9262C26.0489 19.4948 26.6302 19.1326 27.2269 18.8395L29.0613 20.7002C28.4541 20.9825 27.8675 21.3394 27.3017 21.7708C26.736 22.1809 26.1912 22.6442 25.6672 23.1608C24.4375 24.3732 23.8664 25.5372 23.9541 26.6528C24.0312 27.7576 24.6759 28.9249 25.8884 30.1547C28.0707 32.3682 30.2044 32.447 32.2896 30.3912C32.6532 30.0327 32.9797 29.6581 33.2692 29.2673C33.5588 28.8552 33.7898 28.4693 33.9623 28.1095L31.5902 25.7035L29.1842 28.0756L27.8242 26.6961L32.0587 22.5212L37.0401 27.5738C36.9087 28.1463 36.6171 28.8344 36.1654 29.6382C35.7137 30.442 35.012 31.3131 34.0603 32.2514Z" fill="#121212"/>
<path d="M38.7446 27.7142L30.7427 15.6387L33.2741 13.9612L39.9837 24.0867L45.9277 20.1479L47.22 22.098L38.7446 27.7142Z" fill="#121212"/>
<path d="M47.9085 21.6966L42.2613 8.28848L51.8801 4.23717L52.8009 6.42328L45.9927 9.29076L47.4396 12.7261L53.4774 10.183L54.3894 12.3483L48.3516 14.8914L49.8073 18.3475L56.6154 15.48L57.5274 17.6453L47.9085 21.6966Z" fill="#121212"/>
<path d="M58.5075 17.2776L55.7239 2.99754L61.7109 1.83053C63.8544 1.41271 65.5738 1.65298 66.8691 2.55133C68.1762 3.43202 69.0834 5.17325 69.5905 7.775C70.0688 10.2289 69.8794 12.1302 69.0221 13.4788C68.1767 14.8098 66.6675 15.6871 64.4945 16.1106L58.5075 17.2776ZM61.0515 14.388L63.6237 13.8867C64.4663 13.7224 65.1513 13.4584 65.6789 13.0948C66.2035 12.7163 66.54 12.1597 66.6884 11.4249C66.8486 10.6725 66.8033 9.65325 66.5527 8.36715C66.302 7.08106 65.9773 6.12394 65.5787 5.4958C65.18 4.86766 64.6753 4.48269 64.0646 4.34088C63.4539 4.19907 62.6903 4.2175 61.7737 4.39615L59.2015 4.89753L61.0515 14.388Z" fill="#121212"/>
<path d="M70.2985 14.846L76.1317 0.405457L79.4746 0.46906L84.7318 15.1206L81.5695 15.0604L80.2583 11.5332L74.9051 11.4313L73.4833 14.9066L70.2985 14.846ZM75.4016 9.09083L79.8513 9.17549L77.7264 3.28283L75.4016 9.09083Z" fill="#121212"/>
<path d="M88.0995 16.3199C86.9073 16.0613 85.8843 15.6621 85.0304 15.1224L85.5764 12.6055C86.2421 13.089 87.068 13.4377 88.0542 13.6516C88.9667 13.8496 89.6543 13.8061 90.1168 13.5211C90.5972 13.2247 90.93 12.6496 91.1152 11.7959L93.1747 2.30245L96.1552 2.94904L93.952 13.1048C93.3326 15.9603 91.3817 17.0319 88.0995 16.3199Z" fill="#121212"/>
<path d="M97.9305 18.8642L102.506 7.55555L98.3599 5.87772L99.2411 3.69976L110.34 8.1909L109.459 10.3689L105.334 8.69952L100.758 20.0082L97.9305 18.8642Z" fill="#121212"/>
<path d="M105.448 22.1063L113.304 9.88531L122.072 15.5214L120.791 17.514L114.585 13.5248L112.572 16.6559L118.076 20.1938L116.807 22.1673L111.304 18.6295L109.279 21.7797L115.484 25.7689L114.215 27.7425L105.448 22.1063Z" fill="#121212"/>
<path d="M127.07 42.3518C126.556 41.5768 126.132 40.8145 125.797 40.0649C125.471 39.3278 125.252 38.6451 125.142 38.0168L127.373 36.5382C127.512 37.2373 127.725 37.9512 128.01 38.6798C128.294 39.4085 128.64 40.0791 129.046 40.6916C129.626 41.5666 130.133 42.1566 130.569 42.4614C131.005 42.7662 131.511 42.7281 132.086 42.3471C132.448 42.1069 132.678 41.8288 132.774 41.513C132.871 41.1972 132.855 40.7667 132.728 40.2215C132.621 39.6805 132.413 38.9458 132.104 38.0174C131.617 36.5229 131.467 35.3455 131.652 34.4851C131.838 33.6246 132.393 32.8879 133.318 32.2749C134.43 31.5377 135.556 31.3766 136.694 31.7915C137.833 32.2064 138.916 33.1889 139.943 34.739C140.423 35.464 140.82 36.1722 141.135 36.8635C141.449 37.5548 141.666 38.1397 141.785 38.6184L139.553 40.097C139.262 38.8151 138.747 37.618 138.01 36.5054C137.488 35.7179 136.991 35.1571 136.517 34.823C136.057 34.4807 135.558 34.4876 135.02 34.8438C134.708 35.0509 134.511 35.2978 134.432 35.5846C134.352 35.8713 134.365 36.2582 134.472 36.7451C134.587 37.2445 134.787 37.9126 135.072 38.7494C135.463 39.9109 135.656 40.8805 135.65 41.6583C135.644 42.436 135.475 43.0781 135.145 43.5846C134.824 44.1036 134.375 44.5537 133.8 44.9347C132.75 45.6305 131.641 45.7896 130.474 45.4121C129.306 45.0345 128.171 44.0144 127.07 42.3518Z" fill="#121212"/>
<path d="M132.289 51.3157L143.562 40.6742L144.773 43.6048L136.054 51.5366L147.837 51.0247L149.048 53.9553L133.56 54.3917L132.289 51.3157Z" fill="#121212"/>
<path d="M135.654 60.0487L149.912 57.4299L151.791 67.6584L149.466 68.0854L148.136 60.8457L144.483 61.5167L145.663 67.9372L143.36 68.3601L142.181 61.9396L138.506 62.6146L139.835 69.8543L137.533 70.2772L135.654 60.0487Z" fill="#121212"/>
<path d="M137.404 85.2932L151.513 88.8424L150.868 91.4058L139.789 95.7237L149.187 98.088L148.443 101.046L134.334 97.4964L134.979 94.9331L146.059 90.6152L136.66 88.2509L137.404 85.2932Z" fill="#121212"/>
<path d="M134.114 98.3722L144.432 110.038L142.883 113.001L127.426 111.165L128.891 108.362L132.633 108.763L135.113 104.019L132.638 101.195L134.114 98.3722ZM136.986 105.508L134.924 109.452L141.146 110.18L136.986 105.508Z" fill="#121212"/>
<path d="M136.723 124.212L141.71 124.31L140.202 126.178L137.415 126.023L138.124 128.75L136.644 130.583L135.499 125.728L136.723 124.212ZM124.21 114.542C124.798 113.814 125.401 113.175 126.019 112.626C126.628 112.089 127.217 111.672 127.787 111.375L129.884 113.069C129.255 113.415 128.634 113.835 128.021 114.33C127.408 114.825 126.869 115.36 126.404 115.936C125.739 116.758 125.327 117.425 125.167 117.936C125.006 118.447 125.196 118.92 125.737 119.357C126.077 119.632 126.414 119.768 126.747 119.765C127.079 119.762 127.488 119.616 127.973 119.328C128.46 119.062 129.102 118.639 129.899 118.06C131.187 117.139 132.271 116.637 133.154 116.554C134.036 116.471 134.912 116.781 135.782 117.483C136.827 118.327 137.323 119.359 137.271 120.578C137.218 121.797 136.603 123.135 135.426 124.592C134.876 125.273 134.317 125.869 133.748 126.381C133.18 126.892 132.684 127.278 132.261 127.538L130.164 125.844C131.306 125.175 132.299 124.318 133.144 123.272C133.742 122.532 134.129 121.884 134.306 121.328C134.495 120.782 134.337 120.305 133.832 119.897C133.538 119.66 133.241 119.546 132.942 119.557C132.642 119.567 132.275 119.697 131.84 119.948C131.395 120.21 130.814 120.605 130.097 121.132C129.101 121.861 128.229 122.34 127.48 122.57C126.731 122.8 126.064 122.833 125.477 122.67C124.881 122.519 124.313 122.225 123.773 121.789C122.786 120.992 122.296 119.975 122.305 118.739C122.313 117.504 122.948 116.105 124.21 114.542Z" fill="#121212"/>
<path d="M119.789 120.018L129.191 131.121L121.226 137.866L119.693 136.056L125.331 131.282L122.922 128.437L117.922 132.671L116.404 130.878L121.403 126.644L118.98 123.782L113.342 128.556L111.824 126.763L119.789 120.018Z" fill="#121212"/>
<path d="M98.5951 133.861L102.62 147.842L96.0636 149.73C94.9636 150.047 94.0059 150.095 93.1903 149.875C92.3603 149.66 91.6675 149.24 91.1118 148.616C90.5561 147.993 90.145 147.218 89.8783 146.292C89.6075 145.351 89.5705 144.46 89.7674 143.62C89.9499 142.784 90.3519 142.057 90.9733 141.439C91.5845 140.84 92.3894 140.397 93.388 140.109L96.9267 139.09L95.6643 134.705L98.5951 133.861ZM97.5954 141.413L94.6646 142.257C93.8252 142.499 93.2581 142.897 92.9634 143.452C92.6583 144.026 92.6142 144.689 92.8308 145.442C93.0641 146.252 93.4438 146.809 93.9699 147.112C94.5002 147.429 95.1705 147.472 95.981 147.238L99.0204 146.363L97.5954 141.413Z" fill="#121212"/>
<path d="M86.5811 137.171L87.6517 151.68L80.6899 152.194C79.0227 152.317 77.7659 151.964 76.9194 151.136C76.0741 150.322 75.5966 149.172 75.4869 147.685C75.4148 146.708 75.6081 145.848 76.0667 145.105C76.5103 144.362 77.1785 143.8 78.0715 143.417C77.8168 143.239 77.6135 143.043 77.4617 142.827C77.2949 142.613 77.1225 142.324 76.9446 141.959L74.888 138.034L78.0422 137.801L80.0421 141.572C80.2167 141.892 80.3991 142.112 80.5893 142.234C80.7795 142.356 81.0849 142.401 81.5055 142.37L83.8937 142.194L83.5396 137.395L86.5811 137.171ZM84.0799 144.717L80.9482 144.949C80.1521 145.007 79.5415 145.226 79.1164 145.605C78.6924 145.998 78.5114 146.616 78.5735 147.457C78.6333 148.268 78.8724 148.847 79.2906 149.194C79.7088 149.54 80.316 149.684 81.112 149.626L84.424 149.381L84.0799 144.717Z" fill="#121212"/>
<path d="M67.5738 136.917C72.2403 137.586 74.2223 140.372 73.5199 145.277C73.1419 147.916 72.2797 149.74 70.9333 150.749C69.5868 151.758 67.7581 152.097 65.4473 151.766C63.1364 151.435 61.4764 150.597 60.4673 149.25C59.4582 147.904 59.1425 145.911 59.5205 143.272C60.2229 138.367 62.9074 136.249 67.5738 136.917ZM67.2055 139.489C65.8488 139.295 64.8019 139.54 64.0647 140.226C63.3104 140.924 62.817 142.086 62.5842 143.711C62.3259 145.515 62.4649 146.828 63.0014 147.651C63.5208 148.486 64.4589 149 65.8156 149.195C67.1723 149.389 68.2245 149.159 68.9724 148.506C69.7032 147.865 70.1977 146.642 70.4561 144.838C70.6888 143.213 70.5487 141.961 70.0357 141.081C69.5056 140.214 68.5622 139.683 67.2055 139.489Z" fill="#121212"/>
<path d="M57.439 134.482C58.5858 134.885 59.5479 135.405 60.3255 136.044L59.4756 138.465C58.8771 137.905 58.1036 137.458 57.155 137.125C56.2773 136.817 55.5922 136.775 55.0999 137C54.5884 137.234 54.1886 137.762 53.9003 138.583L50.6946 147.714L47.8277 146.708L51.2571 136.939C52.2213 134.193 54.2819 133.374 57.439 134.482Z" fill="#121212"/>
<path d="M51.0066 132.602L44.0231 145.405L34.8384 140.395L35.977 138.308L42.4779 141.854L44.2671 138.573L38.5018 135.429L39.6295 133.361L45.3949 136.506L47.195 133.206L40.694 129.66L41.8218 127.592L51.0066 132.602Z" fill="#121212"/>
<path d="M40.9925 126.94L31.536 137.997L29.2183 136.014L33.227 131.327L24.9605 132.373L22.2994 130.097L30.1322 129.037L31.5499 118.864L34.0221 120.979L32.8371 128.794L35.6792 128.46L38.6747 124.958L40.9925 126.94Z" fill="#121212"/>
<path d="M29.1702 115.714L19.6176 123.301L22.3997 126.804L20.5599 128.265L13.1128 118.889L14.9526 117.428L17.7207 120.913L27.2733 113.325L29.1702 115.714Z" fill="#121212"/>
<path d="M24.1973 109.193L11.304 115.933L6.46848 106.684L8.57064 105.585L11.9932 112.131L15.2966 110.404L12.2613 104.598L14.3434 103.51L17.3787 109.316L20.7021 107.578L17.2796 101.032L19.3617 99.9433L24.1973 109.193Z" fill="#121212"/>
<path d="M8.15611 84.0571L7.02699 85.9351L4.79835 84.1999L3.98483 86.8011L2.02638 86.0436L2.91964 83.8224L0.602897 84.1448L0.395508 81.8404L2.73259 81.744L1.45708 79.718L3.25083 78.6456L4.51573 81.0597L6.39872 78.9544L7.84502 80.6006L5.69522 82.525L8.15611 84.0571Z" fill="#121212"/>
</svg>
