<svg width="48" height="48" viewBox="0 0 48 48" fill="none" xmlns="http://www.w3.org/2000/svg">
<path d="M42.7929 0.5L47.5 5.20711V47.5H0.5V0.5H42.7929Z" stroke="white"/>
<path fill-rule="evenodd" clip-rule="evenodd" d="M34.7889 32.8403C35.9886 32.5181 36.9317 31.5781 37.2504 30.3865C37.8305 28.224 37.8305 23.7092 37.8305 23.7092C37.8305 23.7092 37.8305 19.1944 37.2504 17.0319C36.9272 15.836 35.9843 14.8959 34.7889 14.5782C32.6195 14 23.9152 14 23.9152 14C23.9152 14 15.2155 14 13.0416 14.5782C11.8418 14.9004 10.8988 15.8403 10.58 17.0319C10 19.1944 10 23.7093 10 23.7093C10 23.7093 10 28.224 10.58 30.3865C10.9032 31.5825 11.8463 32.5225 13.0416 32.8403C15.2155 33.4185 23.9152 33.4185 23.9152 33.4185C23.9152 33.4185 32.6195 33.4185 34.7889 32.8403ZM28.3646 23.7096L21.1348 19.5478V27.8712L28.3646 23.7096Z" fill="white"/>
</svg>
